<mxfile host="Electron" agent="Mozilla/5.0 (Windows NT 10.0; Win64; x64) AppleWebKit/537.36 (KHTML, like Gecko) draw.io/28.1.2 Chrome/138.0.7204.243 Electron/37.4.0 Safari/537.36" version="28.1.2">
  <diagram name="Page-1" id="qym8p9pH_3YMepKZ1uBy">
    <mxGraphModel dx="830" dy="1673" grid="1" gridSize="10" guides="1" tooltips="1" connect="1" arrows="1" fold="1" page="1" pageScale="1" pageWidth="827" pageHeight="1169" math="0" shadow="0">
      <root>
        <mxCell id="0" />
        <mxCell id="1" parent="0" />
        <mxCell id="y01ae_BzcZgU-wkBwJiQ-1" value="" style="whiteSpace=wrap;html=1;aspect=fixed;" vertex="1" parent="1">
          <mxGeometry x="150" y="-230" width="670" height="670" as="geometry" />
        </mxCell>
        <mxCell id="y01ae_BzcZgU-wkBwJiQ-3" value="Messaging system" style="text;html=1;align=center;verticalAlign=middle;whiteSpace=wrap;rounded=0;" vertex="1" parent="1">
          <mxGeometry x="413" y="-270" width="60" height="30" as="geometry" />
        </mxCell>
        <mxCell id="y01ae_BzcZgU-wkBwJiQ-4" value="Composion email" style="ellipse;whiteSpace=wrap;html=1;" vertex="1" parent="1">
          <mxGeometry x="370" y="-205" width="110" height="60" as="geometry" />
        </mxCell>
        <mxCell id="y01ae_BzcZgU-wkBwJiQ-7" value="Sending email" style="ellipse;whiteSpace=wrap;html=1;" vertex="1" parent="1">
          <mxGeometry x="380" y="-90" width="100" height="50" as="geometry" />
        </mxCell>
        <mxCell id="y01ae_BzcZgU-wkBwJiQ-8" style="edgeStyle=orthogonalEdgeStyle;rounded=0;orthogonalLoop=1;jettySize=auto;html=1;exitX=0.5;exitY=1;exitDx=0;exitDy=0;" edge="1" parent="1" source="y01ae_BzcZgU-wkBwJiQ-3" target="y01ae_BzcZgU-wkBwJiQ-3">
          <mxGeometry relative="1" as="geometry" />
        </mxCell>
        <mxCell id="y01ae_BzcZgU-wkBwJiQ-9" value="replying email" style="ellipse;whiteSpace=wrap;html=1;" vertex="1" parent="1">
          <mxGeometry x="385" y="-20" width="100" height="50" as="geometry" />
        </mxCell>
        <mxCell id="y01ae_BzcZgU-wkBwJiQ-12" value="attaching fils" style="ellipse;whiteSpace=wrap;html=1;" vertex="1" parent="1">
          <mxGeometry x="630" y="-210" width="100" height="70" as="geometry" />
        </mxCell>
        <mxCell id="y01ae_BzcZgU-wkBwJiQ-13" style="edgeStyle=orthogonalEdgeStyle;rounded=0;orthogonalLoop=1;jettySize=auto;html=1;exitX=0.5;exitY=1;exitDx=0;exitDy=0;" edge="1" parent="1" source="y01ae_BzcZgU-wkBwJiQ-3" target="y01ae_BzcZgU-wkBwJiQ-3">
          <mxGeometry relative="1" as="geometry" />
        </mxCell>
        <mxCell id="y01ae_BzcZgU-wkBwJiQ-14" value="" style="endArrow=none;dashed=1;html=1;dashPattern=1 3;strokeWidth=2;rounded=0;entryX=0;entryY=0.5;entryDx=0;entryDy=0;exitX=1;exitY=0.5;exitDx=0;exitDy=0;" edge="1" parent="1" source="y01ae_BzcZgU-wkBwJiQ-7" target="y01ae_BzcZgU-wkBwJiQ-12">
          <mxGeometry width="50" height="50" relative="1" as="geometry">
            <mxPoint x="390" y="10" as="sourcePoint" />
            <mxPoint x="440" y="-40" as="targetPoint" />
          </mxGeometry>
        </mxCell>
        <mxCell id="y01ae_BzcZgU-wkBwJiQ-15" value="" style="endArrow=none;dashed=1;html=1;dashPattern=1 3;strokeWidth=2;rounded=0;exitX=1;exitY=0.5;exitDx=0;exitDy=0;entryX=0.5;entryY=1;entryDx=0;entryDy=0;" edge="1" parent="1" source="y01ae_BzcZgU-wkBwJiQ-18" target="y01ae_BzcZgU-wkBwJiQ-12">
          <mxGeometry width="50" height="50" relative="1" as="geometry">
            <mxPoint x="560" y="-60" as="sourcePoint" />
            <mxPoint x="610" y="-110" as="targetPoint" />
          </mxGeometry>
        </mxCell>
        <mxCell id="y01ae_BzcZgU-wkBwJiQ-17" value="&amp;lt;&amp;lt;extand&amp;gt;&amp;gt;" style="text;html=1;align=center;verticalAlign=middle;whiteSpace=wrap;rounded=0;" vertex="1" parent="1">
          <mxGeometry x="530" y="-140" width="60" height="30" as="geometry" />
        </mxCell>
        <mxCell id="y01ae_BzcZgU-wkBwJiQ-19" value="to all" style="ellipse;whiteSpace=wrap;html=1;" vertex="1" parent="1">
          <mxGeometry x="620" y="60" width="100" height="50" as="geometry" />
        </mxCell>
        <mxCell id="y01ae_BzcZgU-wkBwJiQ-20" value="replying ind" style="ellipse;whiteSpace=wrap;html=1;" vertex="1" parent="1">
          <mxGeometry x="659" y="-50" width="100" height="50" as="geometry" />
        </mxCell>
        <mxCell id="y01ae_BzcZgU-wkBwJiQ-21" value="" style="endArrow=blockThin;html=1;rounded=0;exitX=0;exitY=0.5;exitDx=0;exitDy=0;entryX=1;entryY=0.5;entryDx=0;entryDy=0;endFill=0;" edge="1" parent="1" source="y01ae_BzcZgU-wkBwJiQ-20" target="y01ae_BzcZgU-wkBwJiQ-9">
          <mxGeometry width="50" height="50" relative="1" as="geometry">
            <mxPoint x="390" y="10" as="sourcePoint" />
            <mxPoint x="440" y="-40" as="targetPoint" />
          </mxGeometry>
        </mxCell>
        <mxCell id="y01ae_BzcZgU-wkBwJiQ-22" value="" style="endArrow=block;html=1;rounded=0;exitX=0.069;exitY=0.274;exitDx=0;exitDy=0;entryX=0.774;entryY=0.978;entryDx=0;entryDy=0;entryPerimeter=0;exitPerimeter=0;endFill=0;" edge="1" parent="1" source="y01ae_BzcZgU-wkBwJiQ-19" target="y01ae_BzcZgU-wkBwJiQ-9">
          <mxGeometry width="50" height="50" relative="1" as="geometry">
            <mxPoint x="607" y="100" as="sourcePoint" />
            <mxPoint x="490" y="40" as="targetPoint" />
          </mxGeometry>
        </mxCell>
        <mxCell id="y01ae_BzcZgU-wkBwJiQ-23" value="forwarding email" style="ellipse;whiteSpace=wrap;html=1;" vertex="1" parent="1">
          <mxGeometry x="380" y="50" width="100" height="50" as="geometry" />
        </mxCell>
        <mxCell id="y01ae_BzcZgU-wkBwJiQ-25" value="selecting recipients." style="ellipse;whiteSpace=wrap;html=1;" vertex="1" parent="1">
          <mxGeometry x="385" y="140" width="100" height="50" as="geometry" />
        </mxCell>
        <mxCell id="y01ae_BzcZgU-wkBwJiQ-27" value="Actor" style="shape=umlActor;verticalLabelPosition=bottom;verticalAlign=top;html=1;outlineConnect=0;" vertex="1" parent="1">
          <mxGeometry x="50" y="-60" width="30" height="60" as="geometry" />
        </mxCell>
        <mxCell id="y01ae_BzcZgU-wkBwJiQ-28" value="" style="endArrow=none;html=1;rounded=0;entryX=0;entryY=0.5;entryDx=0;entryDy=0;" edge="1" parent="1" source="y01ae_BzcZgU-wkBwJiQ-27" target="y01ae_BzcZgU-wkBwJiQ-4">
          <mxGeometry width="50" height="50" relative="1" as="geometry">
            <mxPoint x="390" y="120" as="sourcePoint" />
            <mxPoint x="440" y="70" as="targetPoint" />
          </mxGeometry>
        </mxCell>
        <mxCell id="y01ae_BzcZgU-wkBwJiQ-29" value="" style="endArrow=none;dashed=1;html=1;dashPattern=1 3;strokeWidth=2;rounded=0;exitX=1;exitY=0.5;exitDx=0;exitDy=0;entryX=0.5;entryY=1;entryDx=0;entryDy=0;" edge="1" parent="1" source="y01ae_BzcZgU-wkBwJiQ-9" target="y01ae_BzcZgU-wkBwJiQ-18">
          <mxGeometry width="50" height="50" relative="1" as="geometry">
            <mxPoint x="593" y="-25" as="sourcePoint" />
            <mxPoint x="680" y="-140" as="targetPoint" />
          </mxGeometry>
        </mxCell>
        <mxCell id="y01ae_BzcZgU-wkBwJiQ-18" value="&amp;lt;&amp;lt;extand&amp;gt;&amp;gt;" style="text;html=1;align=center;verticalAlign=middle;whiteSpace=wrap;rounded=0;rotation=0;" vertex="1" parent="1">
          <mxGeometry x="610" y="-110" width="60" height="30" as="geometry" />
        </mxCell>
        <mxCell id="y01ae_BzcZgU-wkBwJiQ-30" value="" style="endArrow=none;html=1;rounded=0;exitX=1;exitY=0.3333333333333333;exitDx=0;exitDy=0;exitPerimeter=0;entryX=0;entryY=0.5;entryDx=0;entryDy=0;" edge="1" parent="1" source="y01ae_BzcZgU-wkBwJiQ-27" target="y01ae_BzcZgU-wkBwJiQ-9">
          <mxGeometry width="50" height="50" relative="1" as="geometry">
            <mxPoint x="410" y="30" as="sourcePoint" />
            <mxPoint x="460" y="-20" as="targetPoint" />
          </mxGeometry>
        </mxCell>
        <mxCell id="y01ae_BzcZgU-wkBwJiQ-31" value="" style="endArrow=none;html=1;rounded=0;entryX=0;entryY=0.5;entryDx=0;entryDy=0;exitX=1;exitY=0.3333333333333333;exitDx=0;exitDy=0;exitPerimeter=0;" edge="1" parent="1" source="y01ae_BzcZgU-wkBwJiQ-27" target="y01ae_BzcZgU-wkBwJiQ-7">
          <mxGeometry width="50" height="50" relative="1" as="geometry">
            <mxPoint x="410" y="30" as="sourcePoint" />
            <mxPoint x="460" y="-20" as="targetPoint" />
          </mxGeometry>
        </mxCell>
        <mxCell id="y01ae_BzcZgU-wkBwJiQ-32" value="" style="endArrow=none;html=1;rounded=0;entryX=0.024;entryY=0.359;entryDx=0;entryDy=0;entryPerimeter=0;" edge="1" parent="1" target="y01ae_BzcZgU-wkBwJiQ-23">
          <mxGeometry width="50" height="50" relative="1" as="geometry">
            <mxPoint x="80" y="-40" as="sourcePoint" />
            <mxPoint x="460" y="-20" as="targetPoint" />
          </mxGeometry>
        </mxCell>
        <mxCell id="y01ae_BzcZgU-wkBwJiQ-33" value="" style="endArrow=none;html=1;rounded=0;entryX=0;entryY=0.5;entryDx=0;entryDy=0;" edge="1" parent="1" target="y01ae_BzcZgU-wkBwJiQ-25">
          <mxGeometry width="50" height="50" relative="1" as="geometry">
            <mxPoint x="90" y="-40" as="sourcePoint" />
            <mxPoint x="460" y="-20" as="targetPoint" />
          </mxGeometry>
        </mxCell>
        <mxCell id="y01ae_BzcZgU-wkBwJiQ-35" value="" style="endArrow=none;dashed=1;html=1;dashPattern=1 3;strokeWidth=2;rounded=0;entryX=1;entryY=0.5;entryDx=0;entryDy=0;exitX=0.057;exitY=0.393;exitDx=0;exitDy=0;exitPerimeter=0;" edge="1" parent="1" source="y01ae_BzcZgU-wkBwJiQ-12" target="y01ae_BzcZgU-wkBwJiQ-4">
          <mxGeometry width="50" height="50" relative="1" as="geometry">
            <mxPoint x="410" y="30" as="sourcePoint" />
            <mxPoint x="460" y="-20" as="targetPoint" />
          </mxGeometry>
        </mxCell>
        <mxCell id="y01ae_BzcZgU-wkBwJiQ-36" value="&amp;lt;&amp;lt;extand&amp;gt;&amp;gt;" style="text;html=1;align=center;verticalAlign=middle;whiteSpace=wrap;rounded=0;" vertex="1" parent="1">
          <mxGeometry x="520" y="-200" width="60" height="30" as="geometry" />
        </mxCell>
      </root>
    </mxGraphModel>
  </diagram>
</mxfile>
